<svg xmlns="http://www.w3.org/2000/svg" width="447.908" height="313.9" viewBox="0 0 447.908 313.9">
  <g id="delivery-truck2" transform="translate(0 -67.004)">
    <g id="Group_1" data-name="Group 1">
      <path id="Path_3" data-name="Path 3" d="M432.7,206.9l-30.5-13.2-25.9-50.4A40.785,40.785,0,0,0,339.6,121H295V108.4A41.142,41.142,0,0,0,254,67H40.8C18,67,0,85.7,0,108.4v193a25.139,25.139,0,0,0,24.8,25.5h5.7c0,1-.1,1.4-.1,2a51.8,51.8,0,1,0,103.6.4v-.5a15.555,15.555,0,0,0-.1-2H306.2v2a51.8,51.8,0,1,0,103.6.4v-2.5h12.9a25.223,25.223,0,0,0,25.2-25.2V230.1A25.078,25.078,0,0,0,432.7,206.9ZM82.3,361a31.8,31.8,0,1,1,31.8-31.8A31.752,31.752,0,0,1,82.3,361ZM275,307.1H129.2a51.733,51.733,0,0,0-93.8,0H25.2a5.179,5.179,0,0,1-5.2-5.5V250.1H275Zm0-198.6V230.1H20V108.5c0-11.7,9.1-21.4,20.8-21.4H254a21.189,21.189,0,0,1,21,21.3Zm20,32.6h44.6a21.106,21.106,0,0,1,19,11.3l20,38.7H295ZM358.1,361a31.8,31.8,0,1,1,31.8-31.8A31.752,31.752,0,0,1,358.1,361ZM428,301.6a5.179,5.179,0,0,1-5.2,5.5H405a51.761,51.761,0,0,0-93.8,0H295v-96h98l31.8,14a5.884,5.884,0,0,1,3.2,5.4Z" fill="#f1c40f"/>
    </g>
  </g>
</svg>
