<svg xmlns="http://www.w3.org/2000/svg" width="512.008" height="342.984" viewBox="0 0 512.008 342.984">
  <g id="premium2" transform="translate(0 -84.512)">
    <path id="Path_4" data-name="Path 4" d="M492.127,113.264c-13.363-7.52-29.279-4.251-37.761,4.08-54.715,53.759-54.39,54.515-60.926,56.938a23.306,23.306,0,0,1-23.2-4.023C269.651,85.742,276.1,91.11,275.2,90.49c-13.77-9.543-31.1-6.785-40.366,2.112-98.719,94.714-93.135,89.869-97.162,92.029-11.37,6.094-22.791,2.068-31.026-7.425-51.477-59.34-47.677-55.064-48.849-56.078-25.258-21.86-61.571,1.448-57.481,37.4C11.5,270.862,19.073,346.98,19.083,347.08c3.623,36.4,2.45,25.056,2.721,27.318,3.448,29.513,25.034,53.1,52.473,53.1H437.3c28.265,0,49.712-25.145,52.5-53.35L511.7,154.8c1.985-17.425-5.687-33.717-19.572-41.532ZM34.708,143.084a2.292,2.292,0,0,1,2.823.229l46.455,53.551c23.185,26.726,58.116,26.459,79.807,5.474l91.046-87.353a2.561,2.561,0,0,1,2.875-.089c98.223,82.529,93.355,78.441,93.554,78.6,14.866,12.028,34.3,15.7,52.6,8.912,14.144-5.244,16.024-9.14,70.75-62.909a2.286,2.286,0,0,1,2.792-.1c2.658,1.5,5.191,5.9,4.474,12.044-.025.214.632-6.355-17.874,179.045H47.58c-17.6-176.83-17.427-175.129-17.449-175.313-.781-6.685,2.31-10.9,4.577-12.1ZM437.3,397.5H74.276c-11.127,0-20.854-11.366-22.662-26.46L50.565,360.5H461.016l-1.052,10.537c-1.806,15.1-11.532,26.463-22.66,26.463Z" fill="#f1c40f"/>
  </g>
</svg>
